<?xml version="1.0" encoding="utf-8"?>
<!-- Generator: Adobe Illustrator 17.1.0, SVG Export Plug-In . SVG Version: 6.00 Build 0)  -->
<!DOCTYPE svg PUBLIC "-//W3C//DTD SVG 1.1//EN" "http://www.w3.org/Graphics/SVG/1.1/DTD/svg11.dtd">
<svg version="1.1" id="Layer_1" xmlns="http://www.w3.org/2000/svg" xmlns:xlink="http://www.w3.org/1999/xlink" x="0px" y="0px"
	 width="250px" height="86.6px" viewBox="0 0 250 86.6" enable-background="new 0 0 250 86.6" xml:space="preserve">
<g>
	<g>
		<g>
			<path fill="#FFFFFF" d="M241.4,7.1h-0.5V6.3h1.8v0.8h-0.5v2.8h-0.8V7.1z M242.8,6.3h1l0.4,1.2l0.4,1.5l0.4-1.5l0.4-1.2h0.9v3.6
				h-0.8V8l-0.2,0.9l-0.3,1h-0.8l-0.3-1l-0.4-1v2h-0.7V6.3z"/>
		</g>
	</g>
</g>
<g>
	<path fill="#FFFFFF" d="M110.3,31.4c0-13.8-11.6-25-26-25l0,0c-1.3,0-2.7,0.1-4,0.3l0,0c-11.1,1.6-18.6,9.6-22.7,15.7l0,0
		C53.4,16.3,46,8.3,34.9,6.7l0,0c-1.3-0.2-2.7-0.3-4-0.3l0,0c-14.3,0-26,11.2-26,25l0,0c0,13.8,11.6,25,25.9,25l0,0
		c1.3,0,2.7-0.1,4-0.3l0,0c11.1-1.6,18.6-9.6,22.7-15.7l0,0c4.2,6.1,11.6,14.1,22.7,15.7l0,0c1.3,0.2,2.7,0.3,4,0.3l0,0
		C98.7,56.5,110.3,45.3,110.3,31.4L110.3,31.4z M33.6,47.4c-0.9,0.1-1.8,0.2-2.7,0.2l0,0c-9.4,0-17.1-7.3-17.1-16.2l0,0
		c0-8.9,7.7-16.2,17.1-16.2l0,0c0.9,0,1.8,0.1,2.7,0.2l0,0c10.5,1.5,16.9,11.8,19.1,16l0,0C50.5,35.6,44.1,45.9,33.6,47.4L33.6,47.4
		z M62.5,31.4c2.2-4.1,8.6-14.5,19.1-16l0,0c0.9-0.1,1.8-0.2,2.7-0.2l0,0c9.4,0,17.1,7.3,17.1,16.2l0,0c0,8.9-7.7,16.2-17.1,16.2
		l0,0c-0.9,0-1.8-0.1-2.7-0.2l0,0C71.1,45.9,64.7,35.6,62.5,31.4L62.5,31.4z"/>
	<polygon fill="#FFFFFF" points="23.7,34 39.3,34 39.3,34 39.3,29 39.3,29 23.7,29 23.7,29 	"/>
	<polygon fill="#FFFFFF" points="86.1,34 91.3,34 91.3,34 91.3,29 91.3,29 86.1,29 86.1,29 86.1,23.7 86.1,23.7 81,23.7 81,23.7 
		81,29 81,29 75.8,29 75.8,29 75.8,34 75.8,34 81,34 81,34 81,39.3 81,39.3 86.1,39.3 86.1,39.3 	"/>
	<path fill="#FFFFFF" d="M12.3,63.9L7.8,78.4l0,0h3.7l0,0l0.7-3l0,0h4.2l0,0l0.8,3l0,0H21l0,0l-4.6-14.5l0,0H12.3L12.3,63.9z
		 M12.9,72.7l1.3-5.3l0,0l1.4,5.3l0,0H12.9L12.9,72.7z"/>
	<path fill="#FFFFFF" d="M34.6,68.8c0-2.8-1.5-4.8-5.5-4.8l0,0h-5.8l0,0v14.5l0,0h3.6l0,0v-4.6l0,0h1.8l0,0l2.2,4.6l0,0h4.2l0,0
		l-2.8-5.3l0,0C33.8,72.3,34.6,70.7,34.6,68.8L34.6,68.8z M28.7,70.9h-1.9l0,0v-4.1l0,0h1.8l0,0c1.7,0,2.1,0.6,2.1,1.9l0,0
		C30.8,70.4,30,70.9,28.7,70.9L28.7,70.9z"/>
	<path fill="#FFFFFF" d="M42.3,63.9h-4.7l0,0v14.5l0,0h4.8l0,0c6.2,0,7.2-4,7.2-7.4l0,0C49.5,66.5,47.7,63.9,42.3,63.9L42.3,63.9z
		 M42.5,75.4h-1.4l0,0v-8.6l0,0h1l0,0c3.2,0,3.5,1.5,3.5,4.3l0,0C45.7,73.6,45.4,75.4,42.5,75.4L42.5,75.4z"/>
	<path fill="#FFFFFF" d="M60.1,72.8c0,2.2-0.6,2.9-2.2,2.9l0,0c-1.4,0-2.2-0.6-2.2-3l0,0v-8.8l0,0h-3.6l0,0v9.5l0,0
		c0,4.4,3.2,5.2,5.6,5.2l0,0c2.6,0,5.8-0.9,5.8-5.2l0,0v-9.5l0,0H60l0,0v8.9H60.1z"/>
	<polygon fill="#FFFFFF" points="66.8,66.9 70.5,66.9 70.5,66.9 70.5,75.4 70.5,75.4 66.8,75.4 66.8,75.4 66.8,78.4 66.8,78.4 
		77.9,78.4 77.9,78.4 77.9,75.4 77.9,75.4 74.1,75.4 74.1,75.4 74.1,66.9 74.1,66.9 77.9,66.9 77.9,66.9 77.9,63.9 77.9,63.9 
		66.8,63.9 66.8,63.9 	"/>
	<polygon fill="#FFFFFF" points="89.5,72.6 84.8,63.9 84.8,63.9 80.8,63.9 80.8,63.9 80.8,78.4 80.8,78.4 84.2,78.4 84.2,78.4 
		84.2,69.1 84.2,69.1 89.2,78.4 89.2,78.4 92.8,78.4 92.8,78.4 92.8,63.9 92.8,63.9 89.5,63.9 89.5,63.9 	"/>
	<path fill="#FFFFFF" d="M101.3,63.7c-4.4,0-6.1,3.2-6.1,7.6l0,0c0,4.8,1.9,7.3,6.1,7.3l0,0c4.7,0,6.2-3.3,6.2-7.5l0,0
		C107.5,65.6,105.4,63.7,101.3,63.7L101.3,63.7z M101.3,75.7c-2.1,0-2.3-1.5-2.3-4.4l0,0c0-3.5,0.3-4.7,2.3-4.7l0,0
		c2.1,0,2.4,1,2.4,4.5l0,0C103.7,74.5,103.4,75.7,101.3,75.7L101.3,75.7z"/>
</g>
<g enable-background="new    ">
	<path fill="#FFFFFF" d="M111.5,9.6c0,1.6-1.2,2.8-2.9,2.8c-1.6,0-2.9-1.2-2.9-2.8c0-1.5,1.3-2.8,2.9-2.8
		C110.2,6.8,111.5,8.1,111.5,9.6z M106.5,9.6c0,1.2,0.9,2.2,2.2,2.2c1.2,0,2.1-1,2.1-2.2c0-1.2-0.9-2.2-2.1-2.2
		C107.4,7.4,106.5,8.4,106.5,9.6z M108.2,11.1h-0.6V8.3c0.3-0.1,0.6-0.1,1.1-0.1c0.5,0,0.8,0.1,1,0.2c0.2,0.1,0.3,0.3,0.3,0.6
		c0,0.3-0.2,0.5-0.6,0.6v0c0.3,0.1,0.4,0.3,0.5,0.7c0.1,0.4,0.1,0.6,0.2,0.7h-0.7c-0.1-0.1-0.1-0.4-0.2-0.7
		c-0.1-0.3-0.2-0.4-0.6-0.4h-0.3V11.1z M108.2,9.5h0.3c0.4,0,0.6-0.1,0.6-0.4c0-0.3-0.2-0.4-0.6-0.4c-0.2,0-0.3,0-0.4,0V9.5z"/>
</g>
<line opacity="0.69" fill="none" stroke="#FFFFFF" stroke-miterlimit="10" enable-background="new    " x1="125.2" y1="6.4" x2="125.2" y2="81.9"/>
<path fill="#FFFFFF" d="M137.4,6.3v23.2h23.2V6.3H137.4z M156.2,20.2h-4.8V25h-4.6v-4.8h-4.8v-4.6h4.8v-4.8h4.6v4.8h4.8V20.2z"/>
<path fill="#FFFFFF" d="M215.5,6.3v23.2h23.2V6.3H215.5z M234.3,20.2H220v-4.6h14.2V20.2z"/>
<path fill="#FFFFFF" d="M163.5,6.3v23.2h23.2V6.3H163.5z M175.1,23.4c-5.1,0-9.2-5.5-9.2-5.5s4.1-5.5,9.2-5.5c5.1,0,9.2,5.5,9.2,5.5
	S180.2,23.4,175.1,23.4z"/>
<circle fill="#FFFFFF" cx="175.1" cy="17.9" r="2.5"/>
<path fill="#FFFFFF" d="M189.5,6.3v23.2h23.2V6.3H189.5z M202.6,21.3l-3.2,3.2l-3.2-3.2l-3.3-3.3l3.2-3.2l3.3,3.3l6.8-6.8l3.2,3.2
	L202.6,21.3z"/>
<g>
	<path fill="#FFFFFF" d="M149.2,44.9v6.2c-1.7,0.9-3.4,1.4-5.1,1.4c-4.6,0-6.7-2.8-6.7-7.7c0-5.2,3.2-7.6,7.5-7.6
		c1.6,0,2.7,0.3,4.3,1l-1.3,3.3c-1.2-1-2-1.3-3.2-1.3c-2.2,0-3.4,1.2-3.4,4.6c0,3.5,1.3,4.8,3.5,4.8c0.3,0,0.5,0,0.7,0v-4.6H149.2z"
		/>
	<path fill="#FFFFFF" d="M162.8,48.4l0.9,2.8c-1.5,0.8-2.8,1.3-5,1.3c-3,0-6-1.6-6-5.9c0-3.6,2.6-5.7,5.6-5.7c3.1,0,5.5,1.5,5.5,6
		c0,0.3,0,0.5,0,0.8h-7.2c0.4,1.7,1.8,2,3.1,2C160.5,49.7,161.8,49.2,162.8,48.4z M160.1,45.4c0.1-1.5-0.8-2-1.7-2
		c-1.2,0-1.8,0.5-2,2H160.1z"/>
	<path fill="#FFFFFF" d="M171.4,52.3h-3.7V41.2h3.3l0.1,1.6c1.1-1.4,2.6-2,4-2c2,0,3.7,1.1,3.7,3.9v7.5h-3.7V46
		c0-1.5-0.7-1.8-1.5-1.8c-0.8,0-1.7,0.5-2.3,1.2V52.3z"/>
	<path fill="#FFFFFF" d="M190.1,41.2h3.7v11.1h-3.2l-0.2-1.7c-1.1,1.4-2.5,2-3.9,2c-2,0-3.7-0.8-3.7-3.9v-7.4h3.7v6.4
		c0,1.6,0.6,1.8,1.3,1.8c0.8,0,1.8-0.7,2.4-1.4V41.2z"/>
	<path fill="#FFFFFF" d="M197.9,49.4h3.4v-5.4h-3.4v-2.8h7v8.2h3.5v2.8h-10.5V49.4z M203.1,35.6c1.1,0,2,0.9,2,2c0,1.1-0.9,2-2,2
		c-1.1,0-2-0.9-2-2C201.1,36.5,202,35.6,203.1,35.6z"/>
	<path fill="#FFFFFF" d="M216.2,52.3h-3.7V41.2h3.3l0.1,1.6c1.1-1.4,2.6-2,4-2c2,0,3.7,1.1,3.7,3.9v7.5H220V46
		c0-1.5-0.7-1.8-1.5-1.8c-0.8,0-1.7,0.5-2.3,1.2V52.3z"/>
	<path fill="#FFFFFF" d="M233.1,40.9c3.9,0,6,2.4,6,5.8c0,3.2-2.2,5.8-6,5.8c-3.7,0-6.1-2.2-6.1-5.8C227,43.4,229.4,40.9,233.1,40.9
		z M233,49.7c1.8,0,2.3-0.9,2.3-3c0-1.6-0.4-2.9-2.3-2.9c-1.6,0-2.1,1.1-2.1,2.9C230.9,48.7,231.6,49.7,233,49.7z"/>
</g>
</svg>
